<svg width="98" height="90" viewBox="0 0 98 90" fill="none" xmlns="http://www.w3.org/2000/svg">
<path d="M0.045719 44.2707C-0.622218 38.1468 6.17978 39.2778 10.5554 39.1261C19.7566 39.1261 32.1203 40.5191 40.1355 49.2085L40.1355 37.6227C41.635 9.08576 62.75 -0.693216 86.8094 0.0377933C91.0078 0.258475 98.8049 -1.20354 97.9325 5.21003C97.8507 5.65139 95.3425 16.8785 87.4772 27.0299C80.5797 35.9537 71.7871 45.8885 51.7217 43.2265L51.3651 56.7867L49.5402 85.0376C49.5265 90.3477 42.2404 92.1258 42.1995 86.7191C43.2082 61.4234 37.7278 47.3313 8.82932 47.5382C11.4193 54.0207 18.2707 64.8493 30.7434 67.0423C32.9381 67.4285 34.3967 69.5388 34.0014 71.7732C33.647 74.0076 31.5205 75.4696 29.3667 75.0834C6.15251 71.0146 0.291084 45.3879 0.045719 44.2707Z" fill="#027A48"/>
</svg>
