<svg width="389" height="378" viewBox="0 0 389 378" fill="none" xmlns="http://www.w3.org/2000/svg">
<path d="M75 139.43H78.4709C78.9087 142.316 79.7217 144.914 80.9099 147.223C82.1607 149.532 83.6929 151.488 85.5066 153.091C87.3827 154.695 89.5091 155.945 91.8856 156.843C94.3246 157.677 96.9512 158.094 99.7655 158.094C104.393 158.094 108.052 156.971 110.741 154.727C113.43 152.482 114.775 149.435 114.775 145.587C114.775 143.984 114.493 142.509 113.931 141.162C113.43 139.815 112.555 138.532 111.304 137.314C110.053 136.031 108.365 134.781 106.238 133.562C104.174 132.343 101.548 131.029 98.3583 129.618C94.4809 127.886 91.2289 126.219 88.6023 124.615C85.9756 123.012 83.8806 121.344 82.3171 119.613C80.7536 117.881 79.6279 116.053 78.94 114.129C78.3146 112.141 78.0019 109.896 78.0019 107.395C78.0019 104.445 78.5022 101.719 79.5028 99.2177C80.566 96.7165 82.0356 94.5679 83.9118 92.7722C85.788 90.9122 88.0081 89.5013 90.5722 88.5392C93.1363 87.5131 95.9506 87 99.015 87C101.767 87 104.331 87.4489 106.707 88.3468C109.084 89.2447 111.492 90.6878 113.931 92.676L116.37 88.3468H118.527L119.559 107.491H116.088C114.587 102.232 112.398 98.3198 109.522 95.7544C106.707 93.189 103.299 91.9063 99.2964 91.9063C95.4815 91.9063 92.4484 92.8684 90.197 94.7924C87.9456 96.7165 86.8199 99.3139 86.8199 102.585C86.8199 104.124 87.07 105.535 87.5704 106.818C88.0707 108.036 88.8837 109.223 90.0094 110.377C91.1351 111.468 92.6048 112.59 94.4184 113.744C96.232 114.835 98.4834 115.989 101.173 117.208C105.8 119.324 109.647 121.312 112.711 123.172C115.775 124.968 118.215 126.796 120.028 128.656C121.842 130.451 123.124 132.376 123.874 134.428C124.625 136.416 125 138.661 125 141.162C125 144.369 124.375 147.319 123.124 150.013C121.873 152.706 120.122 155.015 117.871 156.939C115.619 158.863 112.93 160.37 109.803 161.461C106.676 162.487 103.236 163 99.4841 163C95.9193 163 92.6986 162.487 89.8218 161.461C87.0075 160.435 84.1307 158.703 81.1914 156.266L78.5647 160.98H76.4071L75 139.43Z" fill="#0C343C"/>
<path d="M235.211 152.414C235.211 153.89 235.247 155.06 235.319 155.924C235.391 156.788 235.57 157.454 235.858 157.922C236.182 158.354 236.633 158.642 237.209 158.786C237.785 158.93 238.595 159.038 239.639 159.11V161H225.274V159.11C226.318 159.038 227.146 158.93 227.758 158.786C228.37 158.642 228.838 158.354 229.162 157.922C229.486 157.49 229.685 156.878 229.757 156.086C229.865 155.258 229.919 154.16 229.919 152.792V130.166C229.919 128.042 229.883 126.35 229.811 125.09C229.775 123.83 229.685 122.876 229.541 122.228C229.469 121.796 229.342 121.454 229.162 121.202C229.018 120.914 228.785 120.698 228.461 120.554C228.137 120.374 227.704 120.248 227.164 120.176C226.624 120.104 225.959 120.068 225.167 120.068V118.232L235.103 116.18V136.754H235.319C235.859 136.034 236.524 135.386 237.316 134.81C238.144 134.198 239.027 133.676 239.963 133.244C240.899 132.812 241.871 132.47 242.879 132.218C243.923 131.966 244.931 131.84 245.903 131.84C247.559 131.84 249.07 132.128 250.438 132.704C251.843 133.28 252.922 134.054 253.678 135.026C254.29 135.854 254.741 136.952 255.029 138.32C255.317 139.652 255.46 141.47 255.46 143.774V152.414C255.46 153.89 255.496 155.06 255.568 155.924C255.64 156.752 255.821 157.4 256.109 157.868C256.433 158.336 256.882 158.642 257.458 158.786C258.034 158.93 258.845 159.038 259.889 159.11V161H245.578V159.11C246.586 159.074 247.396 158.984 248.008 158.84C248.62 158.66 249.071 158.354 249.359 157.922C249.683 157.49 249.88 156.878 249.952 156.086C250.06 155.258 250.115 154.16 250.115 152.792V145.988C250.115 141.956 249.647 139.094 248.711 137.402C247.775 135.674 246.209 134.81 244.013 134.81C242.321 134.81 240.772 135.242 239.368 136.106C238 136.97 236.921 138.158 236.129 139.67C235.949 140.066 235.787 140.444 235.643 140.804C235.535 141.128 235.444 141.506 235.372 141.938C235.3 142.37 235.247 142.874 235.211 143.45C235.211 143.99 235.211 144.674 235.211 145.502V152.414Z" fill="#0C343C"/>
<path d="M212.924 145.016C210.872 145.808 209.126 146.582 207.686 147.338C206.282 148.094 205.148 148.85 204.284 149.606C203.42 150.362 202.79 151.118 202.394 151.874C202.034 152.63 201.854 153.404 201.854 154.196C201.854 155.384 202.25 156.356 203.042 157.112C203.834 157.868 204.878 158.246 206.174 158.246C207.11 158.246 207.974 158.012 208.766 157.544C209.594 157.076 210.314 156.446 210.926 155.654C211.538 154.826 212.024 153.872 212.384 152.792C212.744 151.676 212.924 150.506 212.924 149.282V145.016ZM212.924 142.694V140.48C212.924 136.088 211.052 133.892 207.308 133.892C206.696 133.892 206.174 133.946 205.742 134.054C205.31 134.162 204.95 134.342 204.662 134.594C204.374 134.846 204.104 135.206 203.852 135.674C203.636 136.142 203.42 136.718 203.204 137.402C202.808 138.446 202.412 139.148 202.016 139.508C201.656 139.832 201.116 139.994 200.396 139.994C198.596 139.994 197.696 139.094 197.696 137.294C197.696 135.566 198.614 134.234 200.45 133.298C202.286 132.326 204.896 131.84 208.28 131.84C211.88 131.84 214.436 132.488 215.948 133.784C217.46 135.044 218.216 137.204 218.216 140.264V152.36C218.216 156.464 219.026 158.516 220.646 158.516C221.15 158.516 221.636 158.462 222.104 158.354C222.572 158.21 222.968 157.868 223.292 157.328L224.048 158.624C223.616 159.452 222.824 160.154 221.672 160.73C220.52 161.27 219.314 161.54 218.054 161.54C216.47 161.54 215.282 161.036 214.49 160.028C213.734 159.02 213.356 157.598 213.356 155.762H213.086C212.15 157.526 210.854 158.93 209.198 159.974C207.542 160.982 205.706 161.486 203.69 161.486C201.422 161.486 199.64 160.91 198.344 159.758C197.048 158.606 196.4 157.058 196.4 155.114C196.4 154.25 196.544 153.422 196.832 152.63C197.156 151.838 197.66 151.082 198.344 150.362C199.028 149.642 199.928 148.94 201.044 148.256C202.16 147.536 203.528 146.816 205.148 146.096L212.924 142.694Z" fill="#0C343C"/>
<path d="M183.024 145.016C180.972 145.808 179.226 146.582 177.786 147.338C176.382 148.094 175.248 148.85 174.384 149.606C173.52 150.362 172.89 151.118 172.494 151.874C172.134 152.63 171.954 153.404 171.954 154.196C171.954 155.384 172.35 156.356 173.142 157.112C173.934 157.868 174.978 158.246 176.274 158.246C177.21 158.246 178.074 158.012 178.866 157.544C179.694 157.076 180.414 156.446 181.026 155.654C181.638 154.826 182.124 153.872 182.484 152.792C182.844 151.676 183.024 150.506 183.024 149.282V145.016ZM183.024 142.694V140.48C183.024 136.088 181.152 133.892 177.408 133.892C176.796 133.892 176.274 133.946 175.842 134.054C175.41 134.162 175.05 134.342 174.762 134.594C174.474 134.846 174.204 135.206 173.952 135.674C173.736 136.142 173.52 136.718 173.304 137.402C172.908 138.446 172.512 139.148 172.116 139.508C171.756 139.832 171.216 139.994 170.496 139.994C168.696 139.994 167.796 139.094 167.796 137.294C167.796 135.566 168.714 134.234 170.55 133.298C172.386 132.326 174.996 131.84 178.38 131.84C181.98 131.84 184.536 132.488 186.048 133.784C187.56 135.044 188.316 137.204 188.316 140.264V152.36C188.316 156.464 189.126 158.516 190.746 158.516C191.25 158.516 191.736 158.462 192.204 158.354C192.672 158.21 193.068 157.868 193.392 157.328L194.148 158.624C193.716 159.452 192.924 160.154 191.772 160.73C190.62 161.27 189.414 161.54 188.154 161.54C186.57 161.54 185.382 161.036 184.59 160.028C183.834 159.02 183.456 157.598 183.456 155.762H183.186C182.25 157.526 180.954 158.93 179.298 159.974C177.642 160.982 175.806 161.486 173.79 161.486C171.522 161.486 169.74 160.91 168.444 159.758C167.148 158.606 166.5 157.058 166.5 155.114C166.5 154.25 166.644 153.422 166.932 152.63C167.256 151.838 167.76 151.082 168.444 150.362C169.128 149.642 170.028 148.94 171.144 148.256C172.26 147.536 173.628 146.816 175.248 146.096L183.024 142.694Z" fill="#0C343C"/>
<path d="M138.232 152.414C138.232 153.89 138.268 155.06 138.34 155.924C138.412 156.788 138.592 157.454 138.88 157.922C139.204 158.354 139.654 158.642 140.23 158.786C140.806 158.93 141.616 159.038 142.66 159.11V161H128.296V159.11C129.34 159.038 130.168 158.93 130.78 158.786C131.392 158.642 131.86 158.354 132.184 157.922C132.508 157.49 132.706 156.878 132.778 156.086C132.886 155.258 132.94 154.16 132.94 152.792V130.166C132.94 128.042 132.904 126.35 132.832 125.09C132.796 123.83 132.706 122.876 132.562 122.228C132.49 121.796 132.364 121.454 132.184 121.202C132.04 120.914 131.806 120.698 131.482 120.554C131.158 120.374 130.726 120.248 130.186 120.176C129.646 120.104 128.98 120.068 128.188 120.068V118.232L138.124 116.18V136.754H138.34C138.88 136.034 139.546 135.386 140.338 134.81C141.166 134.198 142.048 133.676 142.984 133.244C143.92 132.812 144.892 132.47 145.9 132.218C146.944 131.966 147.952 131.84 148.924 131.84C150.58 131.84 152.092 132.128 153.46 132.704C154.864 133.28 155.944 134.054 156.7 135.026C157.312 135.854 157.762 136.952 158.05 138.32C158.338 139.652 158.482 141.47 158.482 143.774V152.414C158.482 153.89 158.518 155.06 158.59 155.924C158.662 156.752 158.842 157.4 159.13 157.868C159.454 158.336 159.904 158.642 160.48 158.786C161.056 158.93 161.866 159.038 162.91 159.11V161H148.6V159.11C149.608 159.074 150.418 158.984 151.03 158.84C151.642 158.66 152.092 158.354 152.38 157.922C152.704 157.49 152.902 156.878 152.974 156.086C153.082 155.258 153.136 154.16 153.136 152.792V145.988C153.136 141.956 152.668 139.094 151.732 137.402C150.796 135.674 149.23 134.81 147.034 134.81C145.342 134.81 143.794 135.242 142.39 136.106C141.022 136.97 139.942 138.158 139.15 139.67C138.97 140.066 138.808 140.444 138.664 140.804C138.556 141.128 138.466 141.506 138.394 141.938C138.322 142.37 138.268 142.874 138.232 143.45C138.232 143.99 138.232 144.674 138.232 145.502V152.414Z" fill="#0C343C"/>
<path d="M204.256 174.962H206.671L207.447 197.089H204.256C202.991 191.445 200.547 187.019 196.924 183.813C193.301 180.606 188.931 179.003 183.813 179.003C180.305 179.003 177.171 179.772 174.411 181.311C171.651 182.851 169.322 185.063 167.424 187.949C165.526 190.835 164.06 194.363 163.025 198.532C162.047 202.7 161.558 207.414 161.558 212.673C161.558 222.999 163.485 230.952 167.338 236.532C171.191 242.047 176.769 244.805 184.072 244.805C195.17 244.805 202.301 238.231 205.463 225.084H209V249.038H205.981L203.997 241.438C197.959 247.146 190.656 250 182.088 250C177.2 250 172.772 249.134 168.804 247.403C164.894 245.671 161.53 243.234 158.712 240.091C155.952 236.884 153.795 233.004 152.243 228.451C150.748 223.897 150 218.83 150 213.251C150 207.414 150.805 202.091 152.415 197.281C154.025 192.471 156.268 188.334 159.143 184.871C162.076 181.408 165.555 178.746 169.58 176.886C173.663 174.962 178.149 174 183.037 174C186.487 174 189.736 174.545 192.784 175.635C195.831 176.726 199.138 178.489 202.703 180.927L204.256 174.962Z" fill="#0C343C"/>
<path d="M292.39 239.414C292.39 240.818 292.444 241.952 292.552 242.816C292.696 243.644 292.948 244.31 293.308 244.814C293.668 245.282 294.172 245.606 294.82 245.786C295.468 245.966 296.332 246.074 297.412 246.11V248H281.914V246.11C282.994 246.074 283.876 245.966 284.56 245.786C285.244 245.57 285.766 245.246 286.126 244.814C286.522 244.346 286.774 243.716 286.882 242.924C287.026 242.096 287.098 241.052 287.098 239.792V232.88C287.098 230.792 287.062 229.082 286.99 227.75C286.954 226.382 286.864 225.446 286.72 224.942C286.54 224.114 286.126 223.556 285.478 223.268C284.83 222.944 283.606 222.782 281.806 222.782V220.892L292.39 218.84V239.414ZM286.18 207.878C286.18 206.942 286.504 206.15 287.152 205.502C287.8 204.854 288.592 204.53 289.528 204.53C290.464 204.53 291.256 204.854 291.904 205.502C292.552 206.15 292.876 206.942 292.876 207.878C292.876 208.814 292.552 209.606 291.904 210.254C291.256 210.902 290.464 211.226 289.528 211.226C288.592 211.226 287.8 210.902 287.152 210.254C286.504 209.606 286.18 208.814 286.18 207.878Z" fill="#0C343C"/>
<path d="M269.024 232.016C266.972 232.808 265.226 233.582 263.786 234.338C262.382 235.094 261.248 235.85 260.384 236.606C259.52 237.362 258.89 238.118 258.494 238.874C258.134 239.63 257.954 240.404 257.954 241.196C257.954 242.384 258.35 243.356 259.142 244.112C259.934 244.868 260.978 245.246 262.274 245.246C263.21 245.246 264.074 245.012 264.866 244.544C265.694 244.076 266.414 243.446 267.026 242.654C267.638 241.826 268.124 240.872 268.484 239.792C268.844 238.676 269.024 237.506 269.024 236.282V232.016ZM269.024 229.694V227.48C269.024 223.088 267.152 220.892 263.408 220.892C262.796 220.892 262.274 220.946 261.842 221.054C261.41 221.162 261.05 221.342 260.762 221.594C260.474 221.846 260.204 222.206 259.952 222.674C259.736 223.142 259.52 223.718 259.304 224.402C258.908 225.446 258.512 226.148 258.116 226.508C257.756 226.832 257.216 226.994 256.496 226.994C254.696 226.994 253.796 226.094 253.796 224.294C253.796 222.566 254.714 221.234 256.55 220.298C258.386 219.326 260.996 218.84 264.38 218.84C267.98 218.84 270.536 219.488 272.048 220.784C273.56 222.044 274.316 224.204 274.316 227.264V239.36C274.316 243.464 275.126 245.516 276.746 245.516C277.25 245.516 277.736 245.462 278.204 245.354C278.672 245.21 279.068 244.868 279.392 244.328L280.148 245.624C279.716 246.452 278.924 247.154 277.772 247.73C276.62 248.27 275.414 248.54 274.154 248.54C272.57 248.54 271.382 248.036 270.59 247.028C269.834 246.02 269.456 244.598 269.456 242.762H269.186C268.25 244.526 266.954 245.93 265.298 246.974C263.642 247.982 261.806 248.486 259.79 248.486C257.522 248.486 255.74 247.91 254.444 246.758C253.148 245.606 252.5 244.058 252.5 242.114C252.5 241.25 252.644 240.422 252.932 239.63C253.256 238.838 253.76 238.082 254.444 237.362C255.128 236.642 256.028 235.94 257.144 235.256C258.26 234.536 259.628 233.816 261.248 233.096L269.024 229.694Z" fill="#0C343C"/>
<path d="M224.232 239.414C224.232 240.89 224.268 242.06 224.34 242.924C224.412 243.788 224.592 244.454 224.88 244.922C225.204 245.354 225.654 245.642 226.23 245.786C226.806 245.93 227.616 246.038 228.66 246.11V248H214.296V246.11C215.34 246.038 216.168 245.93 216.78 245.786C217.392 245.642 217.86 245.354 218.184 244.922C218.508 244.49 218.706 243.878 218.778 243.086C218.886 242.258 218.94 241.16 218.94 239.792V217.166C218.94 215.042 218.904 213.35 218.832 212.09C218.796 210.83 218.706 209.876 218.562 209.228C218.49 208.796 218.364 208.454 218.184 208.202C218.04 207.914 217.806 207.698 217.482 207.554C217.158 207.374 216.726 207.248 216.186 207.176C215.646 207.104 214.98 207.068 214.188 207.068V205.232L224.124 203.18V223.754H224.34C224.88 223.034 225.546 222.386 226.338 221.81C227.166 221.198 228.048 220.676 228.984 220.244C229.92 219.812 230.892 219.47 231.9 219.218C232.944 218.966 233.952 218.84 234.924 218.84C236.58 218.84 238.092 219.128 239.46 219.704C240.864 220.28 241.944 221.054 242.7 222.026C243.312 222.854 243.762 223.952 244.05 225.32C244.338 226.652 244.482 228.47 244.482 230.774V239.414C244.482 240.89 244.518 242.06 244.59 242.924C244.662 243.752 244.842 244.4 245.13 244.868C245.454 245.336 245.904 245.642 246.48 245.786C247.056 245.93 247.866 246.038 248.91 246.11V248H234.6V246.11C235.608 246.074 236.418 245.984 237.03 245.84C237.642 245.66 238.092 245.354 238.38 244.922C238.704 244.49 238.902 243.878 238.974 243.086C239.082 242.258 239.136 241.16 239.136 239.792V232.988C239.136 228.956 238.668 226.094 237.732 224.402C236.796 222.674 235.23 221.81 233.034 221.81C231.342 221.81 229.794 222.242 228.39 223.106C227.022 223.97 225.942 225.158 225.15 226.67C224.97 227.066 224.808 227.444 224.664 227.804C224.556 228.128 224.466 228.506 224.394 228.938C224.322 229.37 224.268 229.874 224.232 230.45C224.232 230.99 224.232 231.674 224.232 232.502V239.414Z" fill="#0C343C"/>
<path d="M271.31 194.049C275.662 199.301 281.172 205.537 281.033 212.805C270.847 213.931 259.92 210.179 253.808 201.599C250.52 197.003 249.363 191.799 249.131 186.219C248.9 180.029 248.992 173.887 249.27 167.697C261.216 169.151 272.189 176.137 278.625 186.453C278.625 188.798 278.625 191.142 278.764 193.44C278.996 196.769 279.459 200.051 280.431 203.193C278.579 199.723 275.986 196.534 273.579 193.674C268.671 187.672 263.624 181.764 257.188 177.357C256.076 176.606 255.058 178.388 256.169 179.138C262.142 183.171 266.772 188.563 271.31 194.049ZM326.038 136C328.909 149.692 330.622 163.852 329.789 177.872C329.418 184.296 326.872 190.861 322.52 195.597C318.399 200.098 313.537 203.943 307.981 206.475C304.601 208.022 301.082 208.913 297.378 209.476C294.414 209.945 291.59 210.648 288.719 211.539C287.839 205.959 289.506 200.426 291.497 195.268C292.562 192.596 293.627 190.064 294.137 187.203C294.275 186.5 294.368 185.75 294.507 185.047C301.313 182.421 307.749 176.7 315.389 177.779C316.685 177.966 317.241 175.95 315.945 175.762C308.027 174.637 301.869 179.748 294.97 182.608C295.201 181.624 295.479 180.592 295.803 179.607C299.23 169.385 307.194 161.695 315.296 155.084C316.315 154.24 314.88 152.786 313.861 153.63C305.48 160.523 297.424 168.494 293.859 179.045C293.349 180.545 293.025 182.092 292.747 183.64C292.516 183.921 292.47 184.296 292.562 184.625C292.423 185.562 292.238 186.453 292.053 187.391C291.497 190.298 290.201 192.971 289.136 195.737C287.284 200.614 286.034 205.678 286.589 210.883C282.885 206.147 281.357 200.145 280.894 194.143C280.709 191.517 280.663 188.891 280.709 186.313C280.755 186.172 280.755 186.078 280.709 185.937C280.709 185.14 280.709 184.39 280.755 183.593C280.802 180.076 280.894 176.559 281.867 173.183C283.626 167.135 287.562 161.883 291.914 157.429C296.266 152.927 301.221 148.988 306.684 145.941C309.925 144.159 313.398 142.799 316.732 141.111C319.88 139.564 322.983 137.782 326.038 136Z" fill="#F6C04D"/>
<path d="M271.31 194.049C275.662 199.301 281.172 205.537 281.033 212.805C270.847 213.931 259.92 210.179 253.808 201.599C250.52 197.003 249.363 191.799 249.131 186.219C248.9 180.029 248.992 173.887 249.27 167.697C261.216 169.151 272.189 176.137 278.625 186.453C278.625 188.798 278.625 191.142 278.764 193.44C278.996 196.769 279.459 200.051 280.431 203.193C278.579 199.723 275.986 196.534 273.579 193.674C268.671 187.672 263.624 181.764 257.188 177.357C256.076 176.606 255.058 178.388 256.169 179.138C262.142 183.171 266.772 188.563 271.31 194.049ZM326.038 136C328.909 149.692 330.622 163.852 329.789 177.872C329.418 184.296 326.872 190.861 322.52 195.597C318.399 200.098 313.537 203.943 307.981 206.475C304.601 208.022 301.082 208.913 297.378 209.476C294.414 209.945 291.59 210.648 288.719 211.539C287.839 205.959 289.506 200.426 291.497 195.268C292.562 192.596 293.627 190.064 294.137 187.203C294.275 186.5 294.368 185.75 294.507 185.047C301.313 182.421 307.749 176.7 315.389 177.779C316.685 177.966 317.241 175.95 315.945 175.762C308.027 174.637 301.869 179.748 294.97 182.608C295.201 181.624 295.479 180.592 295.803 179.607C299.23 169.385 307.194 161.695 315.296 155.084C316.315 154.24 314.88 152.786 313.861 153.63C305.48 160.523 297.424 168.494 293.859 179.045C293.349 180.545 293.025 182.092 292.747 183.64C292.516 183.921 292.47 184.296 292.562 184.625C292.423 185.562 292.238 186.453 292.053 187.391C291.497 190.298 290.201 192.971 289.136 195.737C287.284 200.614 286.034 205.678 286.589 210.883C282.885 206.147 281.357 200.145 280.894 194.143C280.709 191.517 280.663 188.891 280.709 186.313C280.755 186.172 280.755 186.078 280.709 185.937C280.709 185.14 280.709 184.39 280.755 183.593C280.802 180.076 280.894 176.559 281.867 173.183C283.626 167.135 287.562 161.883 291.914 157.429C296.266 152.927 301.221 148.988 306.684 145.941C309.925 144.159 313.398 142.799 316.732 141.111C319.88 139.564 322.983 137.782 326.038 136Z" fill="#F6C04D"/>
<path d="M331.397 160.336C331.957 167.59 332.564 175.541 331.023 182.702C329.763 188.747 326.635 194.14 322.339 198.511C317.904 202.929 312.722 206.556 306.886 208.927C303.712 210.183 300.49 210.927 297.082 211.438C293.581 211.996 290.219 212.88 286.858 214.042C286.438 214.181 286.064 214.042 285.831 213.763C284.244 212.089 282.983 210.276 281.956 208.323C282.423 210.043 282.61 211.857 282.423 213.716C282.376 214.46 281.676 214.786 281.162 214.693C281.116 214.693 281.022 214.739 280.929 214.739C270.144 216.088 258.566 212.182 251.843 203.487C248.482 199.162 246.755 194.094 246.334 188.654C245.774 181.725 246.008 174.657 246.381 167.729C246.381 167.636 246.428 167.543 246.428 167.45C245.914 166.846 246.148 165.683 247.175 165.776C259.453 166.846 270.798 173.216 278.128 183.027V182.33C278.221 178.842 278.454 175.355 279.575 172.007C281.582 166.055 285.551 160.894 289.939 156.43C294.608 151.687 299.977 147.502 305.859 144.387C309.081 142.713 312.442 141.364 315.71 139.737C319.165 138.016 322.526 136.063 325.888 134.157C326.121 134.017 326.354 133.971 326.588 134.017C327.008 134.017 327.428 134.203 327.522 134.761C329.389 143.131 330.743 151.687 331.397 160.336ZM329.576 178.052C330.416 164.149 328.689 150.106 325.794 136.528C322.713 138.295 319.585 140.062 316.364 141.643C313.002 143.317 309.547 144.666 306.233 146.433C300.724 149.409 295.728 153.314 291.34 157.825C286.998 162.242 282.983 167.404 281.209 173.448C280.229 176.796 280.135 180.284 280.088 183.771C280.088 184.515 280.088 185.306 280.042 186.096C280.088 186.236 280.088 186.375 280.042 186.468C280.042 189.072 280.042 191.676 280.229 194.233C280.695 200.185 282.236 206.137 285.971 210.834C285.411 205.672 286.671 200.65 288.539 195.814C289.612 193.071 290.92 190.421 291.48 187.538C291.667 186.608 291.807 185.678 291.993 184.794C291.9 184.469 291.947 184.097 292.18 183.818C292.46 182.283 292.787 180.795 293.301 179.261C296.895 168.752 305.019 160.847 313.469 154.058C314.496 153.221 315.943 154.663 314.916 155.5C306.793 162.056 298.716 169.682 295.261 179.819C294.935 180.795 294.655 181.772 294.421 182.795C301.377 179.912 307.587 174.89 315.57 176.006C316.877 176.192 316.317 178.191 315.01 178.005C307.306 176.936 300.817 182.609 293.954 185.213C293.814 185.91 293.721 186.654 293.581 187.352C293.067 190.188 291.993 192.699 290.92 195.349C288.865 200.464 287.185 205.905 288.118 211.485C290.966 210.601 293.861 209.904 296.849 209.439C300.537 208.881 304.132 207.997 307.54 206.463C313.096 203.952 318.044 200.139 322.199 195.675C326.635 190.932 329.202 184.376 329.576 178.052ZM280.415 212.647C280.555 205.44 275 199.255 270.611 194.047C266.036 188.607 261.367 183.26 255.438 179.307C254.364 178.563 255.392 176.796 256.465 177.54C262.955 181.865 268.043 187.77 272.992 193.722C275.373 196.558 277.988 199.72 279.902 203.161C278.968 200.046 278.454 196.744 278.221 193.489C278.081 191.165 278.034 188.84 278.081 186.561C271.545 176.331 260.527 169.403 248.482 167.962C248.155 174.053 248.062 180.191 248.342 186.329C248.575 191.862 249.743 197.023 253.057 201.58C259.126 210.043 270.144 213.763 280.415 212.647Z" fill="#0C343C"/>
<path d="M221.958 32.4693C192.873 26.455 162.69 28.637 134.773 38.7718C106.856 48.9066 82.3026 66.596 63.8501 89.8678C45.3975 113.14 33.7712 141.079 30.2672 170.571C26.7632 200.064 31.5194 229.95 44.0054 256.897C56.4914 283.845 76.2165 306.795 100.982 323.189C125.747 339.583 154.578 348.776 184.262 349.744C213.946 350.712 243.316 343.417 269.096 328.671C294.877 313.926 316.055 292.309 330.271 266.233L320.595 261.784C307.801 285.253 292.021 302.207 268.818 315.478C245.616 328.749 213.593 340.527 186.877 339.656C160.162 338.785 127.764 327.257 105.475 312.502C83.1868 297.748 66.0964 278.802 54.859 254.55C43.6216 230.297 35.82 196.931 38.9735 170.388C42.1271 143.845 53.4308 112.873 70.0381 91.9289C86.6454 70.9843 112.511 51.5137 137.636 42.3924C162.761 33.271 183.747 27.3099 209.923 32.7227L221.958 32.4693Z" fill="url(#paint0_linear_142_347)"/>
<path d="M310.691 278.709C302.353 292.819 282.915 309.413 264.512 319.757C246.11 330.101 216.901 340.922 190.876 340.922C164.85 340.922 137.325 332.025 118.923 321.681C100.52 311.337 78.5167 297.309 72.103 281.468C90.8464 286.457 100.978 293.265 118.923 289.613C136.867 285.961 168.135 276.359 190.876 278.709C221.524 284.177 235.619 291.475 273.491 287.047C302.49 272.733 312.598 272.2 310.691 278.709Z" fill="#582710"/>
<path d="M267.244 260.581C318.547 261.021 352.563 263.159 370.508 266.804C375.004 267.717 378.638 268.753 381.331 269.947C383.855 271.066 386.268 272.627 387.181 275.027C388.258 277.86 386.812 280.353 385.052 282.074C383.275 283.812 380.557 285.452 377.182 287.044C363.675 293.414 335.531 300.843 294.587 309.117L293.444 303.459C334.497 295.163 361.949 287.847 374.72 281.824C377.914 280.317 379.934 279.005 381.015 277.947C381.512 277.461 381.686 277.163 381.743 277.017C381.685 276.929 381.55 276.751 381.244 276.505C380.782 276.134 380.059 275.697 378.992 275.224C376.851 274.275 373.681 273.339 369.36 272.461C352.032 268.942 318.543 266.793 267.194 266.353C215.929 265.913 147.077 267.175 59.167 270.403L58.9552 264.635C146.908 261.405 215.857 260.14 267.244 260.581Z" fill="#0C343C"/>
<path d="M318.387 265.882C313.256 275.503 310.691 280.633 302.353 290.254C294.015 298.592 284.569 306.169 273.492 314.626C262.414 323.083 248.957 328.13 234.483 332.706C220.01 337.283 204.497 339.639 188.831 339.639C173.166 339.639 157.653 337.283 143.18 332.706C128.706 328.13 115.555 321.421 104.478 312.964C93.4006 304.507 83.6477 298.592 75.31 288.971C68.255 278.709 67.6136 279.992 61.8413 269.089L188.831 265.241L318.387 265.882Z" fill="#F45A02" fill-opacity="0.29"/>
<defs>
<linearGradient id="paint0_linear_142_347" x1="221.958" y1="32.4693" x2="157.019" y2="346.508" gradientUnits="userSpaceOnUse">
<stop stop-color="#F5BD4C"/>
<stop offset="1" stop-color="#0C343C"/>
</linearGradient>
</defs>
</svg>
