<svg width="608" height="520" viewBox="0 0 608 520" fill="none" xmlns="http://www.w3.org/2000/svg">
<g filter="url(#filter0_d_171_568)">
<rect x="4" width="600" height="512" fill="#104111"/>
</g>
<path d="M428.239 351.96C428.239 354.893 428.349 357.24 428.569 359C428.789 360.76 429.229 362.117 429.889 363.07C430.549 364.023 431.502 364.683 432.749 365.05C433.995 365.343 435.682 365.527 437.809 365.6V370H403.159V365.6C405.212 365.527 406.862 365.307 408.109 364.94C409.429 364.5 410.419 363.84 411.079 362.96C411.812 362.007 412.289 360.723 412.509 359.11C412.802 357.423 412.949 355.297 412.949 352.73V339.2C412.949 334.947 412.875 331.463 412.729 328.75C412.582 325.963 412.399 324.057 412.179 323.03C411.812 321.197 410.969 319.987 409.649 319.4C408.402 318.813 406.092 318.52 402.719 318.52V314.78L428.239 310.6V351.96ZM412.069 287.28C412.069 284.86 412.875 282.843 414.489 281.23C416.175 279.543 418.192 278.7 420.539 278.7C422.959 278.7 424.975 279.543 426.589 281.23C428.275 282.843 429.119 284.86 429.119 287.28C429.119 289.627 428.275 291.643 426.589 293.33C424.975 294.943 422.959 295.75 420.539 295.75C418.192 295.75 416.175 294.943 414.489 293.33C412.875 291.643 412.069 289.627 412.069 287.28Z" fill="#DDD4BE"/>
<path d="M374.645 338.65C368.485 341.437 363.828 344.04 360.675 346.46C357.595 348.807 356.055 351.263 356.055 353.83C356.055 355.957 356.642 357.643 357.815 358.89C358.988 360.137 360.455 360.76 362.215 360.76C363.975 360.76 365.625 360.467 367.165 359.88C368.705 359.22 370.025 358.377 371.125 357.35C372.225 356.323 373.068 355.113 373.655 353.72C374.315 352.253 374.645 350.713 374.645 349.1V338.65ZM374.645 332.82V328.2C374.645 323.947 373.875 320.867 372.335 318.96C370.868 316.98 368.558 315.99 365.405 315.99C363.278 315.99 361.665 316.577 360.565 317.75C359.465 318.85 358.438 320.72 357.485 323.36C356.825 325.193 355.872 326.623 354.625 327.65C353.452 328.677 351.802 329.19 349.675 329.19C347.622 329.19 346.045 328.567 344.945 327.32C343.845 326.073 343.295 324.313 343.295 322.04C343.295 318.52 345.202 315.733 349.015 313.68C352.902 311.627 358.732 310.6 366.505 310.6C374.718 310.6 380.585 312.103 384.105 315.11C387.625 318.043 389.385 322.993 389.385 329.96V354.05C389.385 360.283 390.632 363.4 393.125 363.4C394.518 363.4 395.802 362.923 396.975 361.97L398.625 365.16C397.598 366.993 395.985 368.46 393.785 369.56C391.658 370.587 389.238 371.1 386.525 371.1C383.152 371.1 380.585 370.073 378.825 368.02C377.065 365.967 376.185 363.07 376.185 359.33H375.635C373.508 363.143 370.758 366.04 367.385 368.02C364.012 370 360.162 370.99 355.835 370.99C351.215 370.99 347.512 369.707 344.725 367.14C341.938 364.5 340.545 361.09 340.545 356.91C340.545 353.683 341.975 350.677 344.835 347.89C347.695 345.03 352.462 342.243 359.135 339.53L374.645 332.82Z" fill="#DDD4BE"/>
<path d="M285.119 351.96C285.119 354.967 285.192 357.35 285.339 359.11C285.559 360.797 285.962 362.117 286.549 363.07C287.209 364.023 288.162 364.647 289.409 364.94C290.729 365.233 292.489 365.453 294.689 365.6V370H260.039V365.6C262.239 365.453 263.999 365.233 265.319 364.94C266.639 364.647 267.629 364.06 268.289 363.18C268.949 362.3 269.352 361.053 269.499 359.44C269.719 357.753 269.829 355.517 269.829 352.73V307.52C269.829 303.12 269.756 299.673 269.609 297.18C269.536 294.613 269.352 292.67 269.059 291.35C268.839 290.397 268.582 289.663 268.289 289.15C267.996 288.563 267.519 288.123 266.859 287.83C266.272 287.463 265.429 287.243 264.329 287.17C263.302 287.023 261.982 286.95 260.369 286.95V282.88L284.899 278.7V319.29H285.339C287.612 316.283 290.142 314.083 292.929 312.69C295.789 311.297 299.199 310.6 303.159 310.6C310.346 310.6 315.919 312.8 319.879 317.2C321.786 319.4 323.289 322.077 324.389 325.23C325.489 328.31 326.039 331.537 326.039 334.91V351.96C326.039 355.04 326.112 357.46 326.259 359.22C326.406 360.907 326.772 362.227 327.359 363.18C328.019 364.06 328.972 364.647 330.219 364.94C331.466 365.233 333.189 365.453 335.389 365.6V370H300.959V365.6C303.159 365.527 304.882 365.343 306.129 365.05C307.449 364.683 308.439 364.06 309.099 363.18C309.832 362.3 310.272 361.053 310.419 359.44C310.639 357.753 310.749 355.517 310.749 352.73V339.2C310.749 331.427 309.906 325.927 308.219 322.7C306.532 319.473 303.636 317.86 299.529 317.86C295.129 317.86 291.646 319.473 289.079 322.7C287.832 324.387 286.842 326.477 286.109 328.97C285.449 331.463 285.119 334.25 285.119 337.33V351.96Z" fill="#DDD4BE"/>
<path d="M245.493 285.3H250.883L248.683 313.13H244.283C242.743 306.383 239.736 301.067 235.263 297.18C230.863 293.293 225.509 291.35 219.203 291.35C214.876 291.35 211.026 292.23 207.653 293.99C204.279 295.677 201.419 298.133 199.073 301.36C196.799 304.513 195.039 308.4 193.793 313.02C192.619 317.567 192.033 322.7 192.033 328.42C192.033 339.787 194.343 348.55 198.963 354.71C203.656 360.797 210.549 363.84 219.643 363.84C226.976 363.84 233.026 361.86 237.793 357.9C242.633 353.94 246.079 348.037 248.133 340.19H252.973V370H247.803L246.263 361.31C238.196 367.837 228.406 371.1 216.893 371.1C210.219 371.1 204.169 370.11 198.743 368.13C193.316 366.15 188.696 363.363 184.883 359.77C181.069 356.103 178.099 351.667 175.973 346.46C173.919 341.253 172.893 335.46 172.893 329.08C172.893 322.407 173.993 316.32 176.193 310.82C178.393 305.32 181.473 300.59 185.433 296.63C189.466 292.67 194.233 289.627 199.733 287.5C205.306 285.3 211.466 284.2 218.213 284.2C222.686 284.2 226.866 284.823 230.753 286.07C234.639 287.317 238.856 289.333 243.403 292.12L245.493 285.3Z" fill="#DDD4BE"/>
<path d="M429.693 246.96C429.693 249.967 429.767 252.35 429.913 254.11C430.133 255.797 430.537 257.117 431.123 258.07C431.783 259.023 432.737 259.647 433.983 259.94C435.303 260.233 437.063 260.453 439.263 260.6V265H404.613V260.6C406.813 260.453 408.573 260.233 409.893 259.94C411.213 259.647 412.203 259.06 412.863 258.18C413.523 257.3 413.927 256.053 414.073 254.44C414.293 252.753 414.403 250.517 414.403 247.73V202.52C414.403 198.12 414.33 194.673 414.183 192.18C414.11 189.613 413.927 187.67 413.633 186.35C413.413 185.397 413.157 184.663 412.863 184.15C412.57 183.563 412.093 183.123 411.433 182.83C410.847 182.463 410.003 182.243 408.903 182.17C407.877 182.023 406.557 181.95 404.943 181.95V177.88L429.473 173.7V214.29H429.913C432.187 211.283 434.717 209.083 437.503 207.69C440.363 206.297 443.773 205.6 447.733 205.6C454.92 205.6 460.493 207.8 464.453 212.2C466.36 214.4 467.863 217.077 468.963 220.23C470.063 223.31 470.613 226.537 470.613 229.91V246.96C470.613 250.04 470.687 252.46 470.833 254.22C470.98 255.907 471.347 257.227 471.933 258.18C472.593 259.06 473.547 259.647 474.793 259.94C476.04 260.233 477.763 260.453 479.963 260.6V265H445.533V260.6C447.733 260.527 449.457 260.343 450.703 260.05C452.023 259.683 453.013 259.06 453.673 258.18C454.407 257.3 454.847 256.053 454.993 254.44C455.213 252.753 455.323 250.517 455.323 247.73V234.2C455.323 226.427 454.48 220.927 452.793 217.7C451.107 214.473 448.21 212.86 444.103 212.86C439.703 212.86 436.22 214.473 433.653 217.7C432.407 219.387 431.417 221.477 430.683 223.97C430.023 226.463 429.693 229.25 429.693 232.33V246.96Z" fill="#DDD4BE"/>
<path d="M377.529 233.65C371.369 236.437 366.712 239.04 363.559 241.46C360.479 243.807 358.939 246.263 358.939 248.83C358.939 250.957 359.525 252.643 360.699 253.89C361.872 255.137 363.339 255.76 365.099 255.76C366.859 255.76 368.509 255.467 370.049 254.88C371.589 254.22 372.909 253.377 374.009 252.35C375.109 251.323 375.952 250.113 376.539 248.72C377.199 247.253 377.529 245.713 377.529 244.1V233.65ZM377.529 227.82V223.2C377.529 218.947 376.759 215.867 375.219 213.96C373.752 211.98 371.442 210.99 368.289 210.99C366.162 210.99 364.549 211.577 363.449 212.75C362.349 213.85 361.322 215.72 360.369 218.36C359.709 220.193 358.755 221.623 357.509 222.65C356.335 223.677 354.685 224.19 352.559 224.19C350.505 224.19 348.929 223.567 347.829 222.32C346.729 221.073 346.179 219.313 346.179 217.04C346.179 213.52 348.085 210.733 351.899 208.68C355.785 206.627 361.615 205.6 369.389 205.6C377.602 205.6 383.469 207.103 386.989 210.11C390.509 213.043 392.269 217.993 392.269 224.96V249.05C392.269 255.283 393.515 258.4 396.009 258.4C397.402 258.4 398.685 257.923 399.859 256.97L401.509 260.16C400.482 261.993 398.869 263.46 396.669 264.56C394.542 265.587 392.122 266.1 389.409 266.1C386.035 266.1 383.469 265.073 381.709 263.02C379.949 260.967 379.069 258.07 379.069 254.33H378.519C376.392 258.143 373.642 261.04 370.269 263.02C366.895 265 363.045 265.99 358.719 265.99C354.099 265.99 350.395 264.707 347.609 262.14C344.822 259.5 343.429 256.09 343.429 251.91C343.429 248.683 344.859 245.677 347.719 242.89C350.579 240.03 355.345 237.243 362.019 234.53L377.529 227.82Z" fill="#DDD4BE"/>
<path d="M314.365 233.65C308.205 236.437 303.548 239.04 300.395 241.46C297.315 243.807 295.775 246.263 295.775 248.83C295.775 250.957 296.361 252.643 297.535 253.89C298.708 255.137 300.175 255.76 301.935 255.76C303.695 255.76 305.345 255.467 306.885 254.88C308.425 254.22 309.745 253.377 310.845 252.35C311.945 251.323 312.788 250.113 313.375 248.72C314.035 247.253 314.365 245.713 314.365 244.1V233.65ZM314.365 227.82V223.2C314.365 218.947 313.595 215.867 312.055 213.96C310.588 211.98 308.278 210.99 305.125 210.99C302.998 210.99 301.385 211.577 300.285 212.75C299.185 213.85 298.158 215.72 297.205 218.36C296.545 220.193 295.591 221.623 294.345 222.65C293.171 223.677 291.521 224.19 289.395 224.19C287.341 224.19 285.765 223.567 284.665 222.32C283.565 221.073 283.015 219.313 283.015 217.04C283.015 213.52 284.921 210.733 288.735 208.68C292.621 206.627 298.451 205.6 306.225 205.6C314.438 205.6 320.305 207.103 323.825 210.11C327.345 213.043 329.105 217.993 329.105 224.96V249.05C329.105 255.283 330.351 258.4 332.845 258.4C334.238 258.4 335.521 257.923 336.695 256.97L338.345 260.16C337.318 261.993 335.705 263.46 333.505 264.56C331.378 265.587 328.958 266.1 326.245 266.1C322.871 266.1 320.305 265.073 318.545 263.02C316.785 260.967 315.905 258.07 315.905 254.33H315.355C313.228 258.143 310.478 261.04 307.105 263.02C303.731 265 299.881 265.99 295.555 265.99C290.935 265.99 287.231 264.707 284.445 262.14C281.658 259.5 280.265 256.09 280.265 251.91C280.265 248.683 281.695 245.677 284.555 242.89C287.415 240.03 292.181 237.243 298.855 234.53L314.365 227.82Z" fill="#DDD4BE"/>
<path d="M224.84 246.96C224.84 249.967 224.913 252.35 225.06 254.11C225.28 255.797 225.683 257.117 226.27 258.07C226.93 259.023 227.883 259.647 229.13 259.94C230.45 260.233 232.21 260.453 234.41 260.6V265H199.76V260.6C201.96 260.453 203.72 260.233 205.04 259.94C206.36 259.647 207.35 259.06 208.01 258.18C208.67 257.3 209.073 256.053 209.22 254.44C209.44 252.753 209.55 250.517 209.55 247.73V202.52C209.55 198.12 209.476 194.673 209.33 192.18C209.256 189.613 209.073 187.67 208.78 186.35C208.56 185.397 208.303 184.663 208.01 184.15C207.716 183.563 207.24 183.123 206.58 182.83C205.993 182.463 205.15 182.243 204.05 182.17C203.023 182.023 201.703 181.95 200.09 181.95V177.88L224.62 173.7V214.29H225.06C227.333 211.283 229.863 209.083 232.65 207.69C235.51 206.297 238.92 205.6 242.88 205.6C250.066 205.6 255.64 207.8 259.6 212.2C261.506 214.4 263.01 217.077 264.11 220.23C265.21 223.31 265.76 226.537 265.76 229.91V246.96C265.76 250.04 265.833 252.46 265.98 254.22C266.126 255.907 266.493 257.227 267.08 258.18C267.74 259.06 268.693 259.647 269.94 259.94C271.186 260.233 272.91 260.453 275.11 260.6V265H240.68V260.6C242.88 260.527 244.603 260.343 245.85 260.05C247.17 259.683 248.16 259.06 248.82 258.18C249.553 257.3 249.993 256.053 250.14 254.44C250.36 252.753 250.47 250.517 250.47 247.73V234.2C250.47 226.427 249.626 220.927 247.94 217.7C246.253 214.473 243.356 212.86 239.25 212.86C234.85 212.86 231.366 214.473 228.8 217.7C227.553 219.387 226.563 221.477 225.83 223.97C225.17 226.463 224.84 229.25 224.84 232.33V246.96Z" fill="#DDD4BE"/>
<path d="M131 236.95H135.29C136.317 243.917 139.103 249.417 143.65 253.45C148.197 257.41 153.807 259.39 160.48 259.39C163.193 259.39 165.687 259.06 167.96 258.4C170.233 257.74 172.177 256.823 173.79 255.65C175.403 254.403 176.65 252.973 177.53 251.36C178.41 249.673 178.85 247.803 178.85 245.75C178.85 243.99 178.557 242.487 177.97 241.24C177.457 239.92 176.43 238.673 174.89 237.5C173.35 236.253 171.223 235.007 168.51 233.76C165.87 232.513 162.423 231.083 158.17 229.47C149.59 226.17 143.247 222.357 139.14 218.03C135.033 213.63 132.98 208.46 132.98 202.52C132.98 199.073 133.64 195.92 134.96 193.06C136.28 190.2 138.113 187.743 140.46 185.69C142.88 183.637 145.74 182.06 149.04 180.96C152.413 179.787 156.117 179.2 160.15 179.2C163.89 179.2 167.41 179.787 170.71 180.96C174.01 182.133 177.273 183.893 180.5 186.24L182.48 180.74H185.12L186.33 204.5H182.04C180.28 198.487 177.53 193.903 173.79 190.75C170.05 187.523 165.723 185.91 160.81 185.91C156.263 185.91 152.56 187.047 149.7 189.32C146.913 191.52 145.52 194.38 145.52 197.9C145.52 199.44 145.777 200.833 146.29 202.08C146.803 203.253 147.757 204.39 149.15 205.49C150.543 206.59 152.45 207.727 154.87 208.9C157.29 210 160.407 211.247 164.22 212.64C169.353 214.62 173.717 216.637 177.31 218.69C180.977 220.67 183.947 222.833 186.22 225.18C188.567 227.453 190.29 229.873 191.39 232.44C192.49 235.007 193.04 237.83 193.04 240.91C193.04 244.65 192.233 248.06 190.62 251.14C189.007 254.22 186.733 256.86 183.8 259.06C180.94 261.26 177.493 262.983 173.46 264.23C169.5 265.477 165.1 266.1 160.26 266.1C155.86 266.1 151.9 265.513 148.38 264.34C144.86 263.093 141.23 261.113 137.49 258.4L135.29 265H132.65L131 236.95Z" fill="#DDD4BE"/>
<path d="M291.945 130.137C308.669 136.934 311.196 157.266 312.529 160.346C313.805 169.377 313.298 162.653 314.38 171.703C315.198 178.545 315.248 176.185 316.515 183.654C316.223 181.934 320.414 185.372 320.312 183.654C320.135 180.621 319.595 180.282 320.142 177.266C318.329 173.391 319.417 174.228 318.903 170.494C317.677 161.587 321.342 167.223 316.239 158.51C312.933 147.575 306.345 135.239 291.945 130.137Z" fill="#DDD4BE"/>
<path d="M338.919 137.399C322.974 145.016 322.424 159.351 320.04 174.208C319.669 182.828 320.676 182.222 320.501 190.846C320.367 197.366 320.501 178.661 319.657 186.872C319.776 185.227 313.33 186.461 313.261 184.831C313.136 181.954 315.135 178.97 314.292 176.161C315.709 172.372 314.596 191.479 314.736 187.915C315.069 179.415 312.062 176.696 316.267 168.103C320.648 159.137 325.115 143.249 338.919 137.399Z" fill="#DDD4BE"/>
<path d="M313.466 140.904C313.231 146.9 315.441 154.042 314.191 159.401C313.211 163.598 317.979 165.193 316.95 169.388C315.709 174.447 314.908 176.274 318.006 180.444C315.864 176.493 319.054 173.853 320.118 169.388C321.014 165.63 317.302 162.254 315.542 158.331C316.004 156.504 315.641 155.431 315.416 151.157C314.82 146.546 314.338 144.071 313.466 140.904Z" fill="#DDD4BE"/>
<path d="M367.983 126.087C352.187 127.722 350.266 126.519 338.379 132.163C334.456 134.027 328.602 137.283 326.435 141.206C325.954 142.076 325.538 142.254 325.187 143.181L325.187 143.914C324.894 144.687 324.647 145.473 324.443 146.264C322.727 151.408 323.692 149.066 323.692 149.066C326.602 144.64 329.238 142.397 333.052 139.595C334.46 137.314 335.388 139.345 335.518 135.419C335.518 135.419 336.347 134.28 334.748 138.401C335.955 137.59 337.171 136.846 338.379 136.168C340.341 134.124 341.112 136.6 342.098 132.163C342.098 132.163 343.144 131.001 340.64 134.962C342.28 134.134 343.884 133.42 345.409 132.807C347.026 131.381 347.391 132.475 348.54 129.356C348.54 129.356 349.217 129.351 347.075 132.163C352.896 130.006 357.202 129.361 357.202 129.361C354.505 130.176 351.983 131.138 349.626 132.212C352.939 132.255 357.691 131.171 357.691 131.171C354.308 130.094 349.034 132.895 346.692 133.647C345.074 134.494 343.543 135.392 342.098 136.323C347.075 137.143 347.075 138.401 347.075 138.401C342.359 135.391 342.361 137.34 339.483 138.106C338.2 139.033 336.419 139.986 335.282 140.948C341.869 139.126 341.149 141.482 341.149 141.482C335.062 137.599 335.048 142.159 332.96 143.013C326.46 149.104 325.348 152.715 324.747 156.191C324.771 156.154 325.049 153.266 330.456 150.061C333.052 148.522 333.548 146.475 336.807 145.36C342.061 143.561 353.559 136.43 357.691 131.171C363.519 127.628 360.945 129.276 367.983 126.087Z" fill="#DDD4BE"/>
<path d="M266 123.166C277.619 122.49 280.784 120.793 290.034 123.477C293.087 124.364 295.783 126.632 297.801 129.216C298.249 129.789 298.57 129.868 298.931 130.498L299.015 131.029C299.315 131.554 299.584 132.093 299.822 132.642C301.654 136.162 300.687 134.581 300.687 134.581C298.074 131.721 295.909 130.408 292.828 128.829C291.547 127.344 291.124 128.084 290.58 125.258C290.58 125.258 289.834 125.37 291.463 128.165C290.497 127.72 289.532 127.325 288.58 126.976C286.925 125.728 286.755 126.858 285.533 123.763C285.533 123.763 284.539 123.798 286.805 126.37C285.524 125.963 284.281 125.636 283.107 125.372C281.773 124.53 281.749 124.655 280.56 122.533C280.56 122.533 279.955 123.319 281.827 125.102C277.367 124.226 274.177 124.266 274.177 124.266C276.223 124.539 278.158 124.938 279.987 125.438C277.594 125.859 276.234 127.113 276.234 127.113C278.559 125.935 280.494 125.862 282.275 126.131C283.542 126.553 284.753 127.023 285.906 127.526C281.875 127.933 282.78 129.38 282.78 129.38C285.848 126.646 285.832 128.293 288.003 128.509C289.038 129.029 290.436 129.509 291.369 130.071C286.393 129.528 286.139 131.984 286.139 131.984C290.099 128.457 291.677 130.919 293.286 131.292C298.689 134.934 299.907 137.417 300.741 139.862C300.719 139.838 300.187 137.781 295.906 136.097C293.851 135.289 292.285 135.09 289.798 134.667C285.79 133.984 279.827 130.432 276.234 127.113C271.61 125.235 271.459 124.645 266 123.166Z" fill="#DDD4BE"/>
<path d="M316.975 123.021C312.578 128.008 311.604 129.986 311.285 133.139C311.394 133.824 311.011 135.9 312.651 137.521C312.935 138.109 313.263 138.273 313.565 138.731C315.664 140.295 312.765 149.813 315.662 151.61C315.483 149.339 315.266 141.941 313.823 135.824C313.568 134.747 313.32 133.005 313.602 131.835C313.507 131.117 314.684 127.495 315.65 126.229C315.65 126.229 313.176 130.893 314.984 138.119C317.933 129.038 316.975 123.021 316.975 123.021Z" fill="#DDD4BE"/>
<path d="M384.803 195.946C386.293 195.335 386.087 193.184 384.504 192.89C363.845 189.063 340.037 186.867 315.456 186.539C290.544 186.206 265.811 187.805 243.799 191.156C242.319 191.381 242.017 193.359 243.355 194.03V194.03C243.648 194.177 243.978 194.228 244.301 194.174C265.785 190.63 290.31 188.923 315.023 189.253C339.73 189.583 363.6 191.935 383.861 196.035C384.177 196.099 384.504 196.068 384.803 195.946V195.946Z" fill="#DDD4BE"/>
<path d="M355 189.733C344.967 188.351 326 185.067 321 176C321 154.5 317.388 162.496 313.5 158.5C312.624 168.039 313.5 183.846 301.071 185.067C293.546 187.412 275 185.989 275 189.963L290.878 189.733L306.432 189.963C306.432 189.755 314.397 190.11 314.629 189.963C314.861 189.816 315.176 189.733 315.505 189.733C315.833 189.733 316.149 189.816 316.381 189.963C316.613 190.11 325.166 188.583 327.675 188.583L355 189.733Z" fill="#DDD4BE"/>
<defs>
<filter id="filter0_d_171_568" x="0" y="0" width="608" height="520" filterUnits="userSpaceOnUse" color-interpolation-filters="sRGB">
<feFlood flood-opacity="0" result="BackgroundImageFix"/>
<feColorMatrix in="SourceAlpha" type="matrix" values="0 0 0 0 0 0 0 0 0 0 0 0 0 0 0 0 0 0 127 0" result="hardAlpha"/>
<feOffset dy="4"/>
<feGaussianBlur stdDeviation="2"/>
<feComposite in2="hardAlpha" operator="out"/>
<feColorMatrix type="matrix" values="0 0 0 0 0 0 0 0 0 0 0 0 0 0 0 0 0 0 0.25 0"/>
<feBlend mode="normal" in2="BackgroundImageFix" result="effect1_dropShadow_171_568"/>
<feBlend mode="normal" in="SourceGraphic" in2="effect1_dropShadow_171_568" result="shape"/>
</filter>
</defs>
</svg>
